<svg width="283" height="283" viewBox="0 0 283 283" fill="none" xmlns="http://www.w3.org/2000/svg">
<path d="M204.177 208.273C197.011 213.685 184.835 212.84 179.284 219.008C173.062 225.886 179.099 237.461 173.034 245.365C170.646 248.5 166.905 250.258 163.202 251.26C161.75 251.652 160.276 251.96 158.788 252.183C160.197 251.674 161.596 251.148 162.958 250.562C168.083 248.366 172.367 245.281 173.252 239.453C173.783 236.211 173.495 232.927 173.517 229.61C173.517 225.698 174.048 221.411 176.611 218.225C182.848 210.276 195.637 212.48 204.181 208.272L204.177 208.273Z" fill="#E31D10"/>
<path d="M213.135 76.24C216.489 89.0371 215.628 102.649 219.214 115.359C219.98 118.127 221.015 120.813 222.304 123.38C225.797 130.28 231.553 135.854 234.815 142.932C236.654 146.817 237.388 151.251 236.758 155.511C236.3 158.666 234.928 161.839 232.511 164.004C227.844 168.453 220.267 166.781 216.586 170.92C214.082 173.909 214.717 178.299 214.891 181.969C215.098 185.326 214.881 188.696 214.246 191.999C213.665 194.906 212.725 197.766 211.266 200.347C213.603 194.973 214.152 188.955 213.641 183.169C213.09 177.896 211.819 171.575 216.91 167.999C220.059 165.808 224.092 165.61 227.505 164.283C231.899 162.655 233.969 158.608 234.317 154.122C234.535 151.01 234.028 147.89 232.835 145.007C231.985 143.051 230.972 141.169 229.806 139.383C226.621 134.412 222.702 129.853 220.119 124.46C212.934 109.392 215.78 92.2367 213.13 76.2413L213.135 76.24Z" fill="#E31D10"/>
<path d="M133.085 23.9408C153.196 21.4697 173.365 29.1376 189.341 41.0416C196.782 46.5729 203.659 53.2774 207.956 61.5797L208.292 62.2313L208.459 62.5564C208.515 62.6639 208.561 62.778 208.613 62.8882L209.221 64.2219L209.368 64.5563C209.417 64.6665 209.466 64.778 209.501 64.8934C209.733 65.5238 210.042 66.3041 210.269 66.9411C209.871 66.2258 209.46 65.4243 209.044 64.7129C208.789 64.3015 208.18 63.2664 207.924 62.855C207.806 62.6825 207.446 62.1384 207.32 61.9539C200.36 51.5535 190.047 43.9798 179.451 37.6058C165.396 29.2876 149.541 24.1584 133.091 23.9368L133.085 23.9408Z" fill="#E31D10"/>
<path d="M48.3213 75.6547C51.7027 64.7726 59.2486 55.6156 67.9516 48.4493C69.4406 47.1992 71.0689 45.9823 72.6535 44.8476C74.031 43.8351 76.1159 42.4482 77.5637 41.5458C81.736 38.926 86.0812 36.5921 90.5692 34.56C98.1682 31.0911 106.115 28.441 114.275 26.6545C117.127 26.0348 120.058 25.5358 122.953 25.1775C122.013 25.4509 121.071 25.7083 120.133 25.9671C113.597 27.8276 107.171 30.0544 100.886 32.6371C90.2135 37.0642 79.8861 42.5358 70.6403 49.4911C61.3945 56.4464 53.2873 65.1096 48.3213 75.6547Z" fill="#E31D10"/>
<path d="M141.485 255.51C126.814 257.912 111.689 257.899 96.9886 255.572C90.5695 254.605 83.7641 253.027 78.9813 248.312C75.4738 244.953 74.4214 240.607 74.1361 235.97C73.9543 233.253 74.0233 230.661 73.88 228.015C73.8256 226.981 73.6146 224.36 73.5363 223.291C72.2477 206.491 70.1708 189.654 65.3242 173.476C59.923 155.21 51.8994 137.72 47.792 119.048C47.3448 116.971 46.9374 114.887 46.5977 112.793C50.912 131.449 59.2687 148.707 65.5498 166.73C72.0658 184.82 74.8209 203.991 76.1413 223.1C76.2143 224.209 76.4068 226.815 76.4545 227.889C76.6947 232.523 76.1984 237.351 77.6157 241.755C78.0609 243.135 78.7489 244.424 79.6475 245.562C80.5936 246.708 81.6842 247.726 82.8922 248.592C87.0925 251.599 92.2933 252.755 97.3097 253.682C111.856 256.391 126.735 256.936 141.481 255.51H141.485Z" fill="#E31D10"/>
<path d="M224.552 153.857C224.235 155.796 223.343 158.397 220.889 159.774C219.647 160.47 218.024 160.855 216.307 161.263C213.219 161.997 209.719 162.827 207.255 165.807C204.172 169.533 204.601 174.366 204.951 178.251C204.975 178.516 204.998 178.782 205.02 179.047C205.393 183.426 204.94 187.806 203.745 191.372C202.418 195.333 200.257 198.241 197.328 200.014C194.596 201.669 191.108 202.425 187.417 203.227C181.481 204.515 174.753 205.976 171.146 211.969C168.731 215.984 168.757 220.596 168.784 224.656C168.805 228.131 168.825 231.414 167.416 233.873C165.439 237.324 160.78 238.916 156.483 240.008C154.709 240.462 152.925 240.878 151.129 241.257C135.496 244.553 119.398 245.007 103.604 242.596C102.03 242.357 100.463 242.089 98.9031 241.79C95.9981 241.237 93.7487 240.585 91.8231 239.74C89.5671 238.751 87.7994 237.507 86.4152 235.934C84.9727 234.298 84.2056 232.107 83.9269 228.833C83.8022 227.357 83.7809 225.842 83.7597 224.237C83.7411 222.84 83.7212 221.396 83.627 219.981C82.698 206.247 81.1706 190.088 76.9093 174.377C74.4847 165.434 71.1869 156.667 67.9965 148.191C63.8825 137.242 59.6173 125.921 57.3519 114.398C56.1483 108.279 55.6426 102.563 55.8337 97.2876C56.0341 91.7032 57.0162 86.6112 58.7759 82.0526C60.9709 76.3687 64.5567 70.8891 69.4351 65.7692C73.9273 61.0527 79.4944 56.6534 85.9826 52.6907C97.3849 45.7288 111.595 40.2546 124.971 37.6721C125.903 37.4951 126.838 37.3363 127.778 37.1956C130.892 36.7333 134.036 36.5008 137.184 36.5002C144.51 36.5002 151.95 37.7636 159.298 40.2546C164.85 42.1377 170.383 44.7309 175.799 47.9862C177.174 48.8099 178.54 49.6774 179.897 50.5886C190.938 57.9898 198.047 65.6949 201.629 74.1418C204.778 81.5669 205.369 89.7776 205.995 98.4701C206.709 108.397 207.447 118.662 212.327 127.783C213.88 130.687 215.777 133.322 217.619 135.878C219.875 138.999 221.999 141.948 223.407 145.212C224.215 147.097 224.662 149.117 224.725 151.167C224.752 152.068 224.694 152.968 224.552 153.857Z" fill="#EFEFEF"/>
<path d="M85.6909 71.7476L85.7201 71.7684L85.6979 71.7517L85.6909 71.7476Z" fill="#F997CA"/>
<path d="M109.284 77.2485L109.251 77.2619L109.278 77.2526L109.284 77.2485Z" fill="#F997CA"/>
<path d="M87.4789 80.9443H87.4761L87.4957 80.9485L87.4789 80.9443Z" fill="#F997CA"/>
<path d="M96.0952 88.2485C96.2259 88.3446 96.1285 88.2752 96.0952 88.2485V88.2485Z" fill="#F997CA"/>
<path d="M90.313 82.8872C90.3543 82.9032 90.4583 82.9552 90.313 82.8872V82.8872Z" fill="#F997CA"/>
<path d="M91.6309 108.658C91.5069 108.769 91.5949 108.679 91.6309 108.658V108.658Z" fill="#F997CA"/>
<path d="M89.7581 111.821L89.7515 111.899L89.7555 111.823L89.7581 111.821Z" fill="#F997CA"/>
<path d="M86.2258 123.633C86.2111 123.66 86.2058 123.66 86.2591 123.564V123.572L86.2258 123.633Z" fill="#F997CA"/>
<path d="M88.9369 117.802C88.9275 117.835 88.9195 117.839 88.953 117.727L88.9369 117.802Z" fill="#F997CA"/>
<path d="M99.9573 105.914C99.9199 105.926 99.8986 105.926 100.016 105.89H100.007L99.9573 105.914Z" fill="#F997CA"/>
<path d="M99.1663 115.936L99.181 115.959L99.1943 115.977L99.1543 115.921L99.157 115.925L99.1663 115.936Z" fill="#F997CA"/>
<path d="M95.3394 112.402L95.3029 112.375L95.2988 112.373L95.3408 112.402H95.3394Z" fill="#F997CA"/>
<path d="M132.255 94.2471L132.252 94.2944L132.255 94.2484V94.2471Z" fill="#F997CA"/>
<path d="M150.672 52.7956V52.7849C150.629 52.9049 150.657 52.8276 150.672 52.7956Z" fill="#F997CA"/>
<path d="M177.454 82.8872C177.306 82.9552 177.412 82.9032 177.454 82.8872V82.8872Z" fill="#F997CA"/>
<path d="M171.671 88.2422C171.637 88.2755 171.541 88.3449 171.671 88.2422V88.2422Z" fill="#F997CA"/>
<path d="M181.504 123.564C181.559 123.66 181.555 123.66 181.539 123.633L181.51 123.572L181.504 123.564Z" fill="#F997CA"/>
<path d="M165.055 103.636C165.029 103.595 164.951 103.482 165.055 103.636V103.636Z" fill="#F997CA"/>
<path d="M178.814 117.727C178.845 117.839 178.838 117.835 178.827 117.802L178.814 117.73V117.727Z" fill="#F997CA"/>
<path d="M167.746 105.892C167.88 105.934 167.836 105.925 167.789 105.91L167.753 105.896L167.746 105.892Z" fill="#F997CA"/>
<path d="M176.132 108.656C176.176 108.68 176.258 108.768 176.132 108.656V108.656Z" fill="#F997CA"/>
<path d="M169.413 115.1L169.424 115.092L169.366 115.138L169.388 115.12L169.413 115.1Z" fill="#F997CA"/>
<path d="M185.731 107.792C185.694 107.825 185.587 107.895 185.731 107.792V107.792Z" fill="#F997CA"/>
<path d="M87.7999 108.75L87.8119 108.762C87.8279 108.779 87.8265 108.782 87.7559 108.717L87.7719 108.727L87.7999 108.75Z" fill="#F997CA"/>
<path d="M105.061 97.833C103.593 104.435 103.723 111.275 103.866 118.038C104.121 130.568 104.419 143.35 108.595 155.167C113.18 168.144 122.462 180.584 120.218 194.163C117.764 209.018 101.965 219.897 102.218 234.952C102.262 237.56 102.805 240.105 103.61 242.589C102.036 242.35 100.47 242.082 98.9098 241.784C96.0048 241.23 93.7554 240.579 91.8298 239.733C89.5737 238.745 87.806 237.5 86.4219 235.927C84.9793 234.291 84.2123 232.1 83.9336 228.826C83.8088 227.35 83.7876 225.835 83.7664 224.23C83.7478 222.833 83.7279 221.389 83.6337 219.974C82.7047 206.24 81.1772 190.082 76.9159 174.37C74.4913 165.427 71.1935 156.66 68.0032 148.184C63.8892 137.236 59.624 125.914 57.3586 114.391C54.8796 101.793 55.3521 90.9109 58.7746 82.0459C60.9696 76.362 64.5554 70.8825 69.4338 65.7625C73.926 61.0461 79.4931 56.6468 85.9813 52.6841C97.3837 45.7222 111.594 40.2479 124.97 37.6654C125.902 37.4884 126.837 37.3296 127.777 37.189C128.404 38.7403 129.093 40.3302 129.502 42.2545C130.591 47.3531 128.621 51.5441 126.114 55.9235C122.549 62.1502 118.986 68.3774 115.423 74.6049C111.195 81.9902 106.91 89.5228 105.061 97.833Z" fill="#DBDBDB"/>
<path d="M121.22 114.37C115.017 108.679 108.542 103.06 103.791 96.0136C98.9075 88.8473 96.3184 79.5152 98.5081 70.9011C99.3893 67.3272 101.153 63.9378 103.803 61.3593C106.134 59.0634 109.155 57.313 112.458 57.0223C121.442 56.3017 126.287 65.7227 127.143 73.4504C127.29 74.8863 127.143 76.5226 126.181 77.6971C125.111 78.9923 123.025 79.6147 121.613 78.4854L121.507 78.4044L121.42 78.2518C119.933 75.7436 121.055 72.6621 122.68 70.5175C123.457 69.4819 124.353 68.5404 125.348 67.7121C128.692 64.8128 132.577 62.6049 136.779 61.216C139.041 60.4754 141.487 59.8889 143.897 60.4197C147.787 61.3155 150.284 64.738 152.165 67.9576C156.935 76.4085 156.942 86.8354 154.043 95.8981C153.674 97.0673 153.247 98.2736 152.811 99.4176C149.95 106.925 145.778 113.974 140.229 119.8C138.674 121.441 136.492 122.822 134.138 122.785C129.209 122.752 124.697 117.442 121.225 114.375L121.22 114.37ZM121.485 114.075C126.08 118.203 133.403 125.799 138.714 118.498C142.905 112.792 145.924 106.289 148.411 99.6936C148.708 98.9226 149.025 97.979 149.289 97.204C152.265 88.4372 153.069 78.2704 148.707 69.8407C147.547 67.7041 145.938 65.1057 143.684 64.1342C141.593 63.2796 139.061 64.0573 136.909 64.6531C133.305 65.7285 129.91 67.4101 126.871 69.6257C124.836 71.0855 122.471 73.4318 122.491 76.0754C122.511 76.5619 122.633 77.0389 122.848 77.4755L122.656 77.2406C123.391 77.8643 124.514 77.4038 125.108 76.7708C125.542 76.2837 125.751 75.6374 125.837 74.9965C125.97 74.0675 125.851 73.0616 125.686 72.0516C125.525 71.0421 125.295 70.0448 124.997 69.067C123.643 64.5337 120.532 59.7681 115.547 58.9904C110.514 58.2048 106.106 62.0985 103.85 66.2788C100.184 73.3283 100.885 81.8748 103.401 89.2375C106.785 99.107 113.803 107.209 121.487 114.075H121.485Z" fill="#E31D10"/>
</svg>
