<svg width="31" height="31" viewBox="0 0 31 31" fill="none" xmlns="http://www.w3.org/2000/svg">
<circle cx="15.395" cy="15.7183" r="15.2427" fill="#EFEFEF"/>
<path d="M21.4047 8.6474C21.6976 8.35451 22.1724 8.35451 22.4653 8.6474C22.7582 8.9403 22.7582 9.41517 22.4653 9.70806L16.4549 15.7185L22.4653 21.7289C22.7582 22.0218 22.7582 22.4967 22.4653 22.7896C22.1724 23.0825 21.6976 23.0825 21.4047 22.7896L15.3942 16.7792L9.38385 22.7895C9.34724 22.8262 9.30778 22.8582 9.26619 22.8857C8.97508 23.0779 8.57947 23.0458 8.32319 22.7895C8.03029 22.4967 8.03029 22.0218 8.32319 21.7289L14.3336 15.7185L8.32319 9.70811C8.0303 9.41522 8.0303 8.94034 8.32319 8.64745C8.61608 8.35456 9.09096 8.35456 9.38385 8.64745L15.3942 14.6579L21.4047 8.6474Z" fill="#15284B"/>
</svg>
