<svg width="31" height="30" viewBox="0 0 31 30" fill="none" xmlns="http://www.w3.org/2000/svg">
<path d="M29.4168 15.2997C29.4174 18.6207 28.2116 21.8362 26.0104 24.3834C23.8092 26.9307 20.7528 28.6476 17.376 29.2336C13.9992 29.8196 10.517 29.2375 7.53886 27.5891C4.56067 25.9406 2.27611 23.3309 1.08493 20.2165C-0.106247 17.1021 -0.128184 13.6813 1.02296 10.5529C2.1741 7.42438 4.42501 4.78738 7.38183 3.10328C10.3386 1.41918 13.8131 0.795237 17.1971 1.34063C20.5812 1.88602 23.6594 3.56601 25.8931 6.08664C28.1669 8.65148 29.417 11.9197 29.4168 15.2997Z" fill="#C9A71C"/>
<path d="M30.4803 14.6564C30.4809 17.9774 29.2751 21.1929 27.0739 23.7401C24.8727 26.2874 21.8163 28.0043 18.4395 28.5903C15.0627 29.1763 11.5805 28.5942 8.60233 26.9458C5.62415 25.2973 3.33959 22.6876 2.14841 19.5732C0.95723 16.4588 0.935292 13.038 2.08644 9.90956C3.23758 6.78107 5.48849 4.14407 8.44531 2.45997C11.4021 0.775869 14.8765 0.151926 18.2606 0.697317C21.6447 1.24271 24.7228 2.9227 26.9565 5.44333C29.2304 8.00818 30.4804 11.2764 30.4803 14.6564Z" fill="#FAD54F"/>
<path d="M27.6986 14.6563C27.6979 17.3771 26.6967 20.0088 24.8742 22.0802C23.0518 24.1515 20.5271 25.5272 17.7524 25.9608C14.9777 26.3944 12.1341 25.8576 9.73099 24.4466C7.32784 23.0355 5.52206 20.8424 4.63704 18.26C3.75201 15.6776 3.84555 12.8745 4.9009 10.3528C5.95625 7.831 7.90447 5.75529 10.3967 4.49736C12.8889 3.23942 15.7623 2.88143 18.5023 3.48748C21.2424 4.09353 23.67 5.62404 25.3506 7.80492C26.8756 9.78404 27.6992 12.1872 27.6986 14.6563Z" fill="#CB9216"/>
<path d="M26.4195 14.6563C26.4195 19.8878 23.0063 24.3244 18.2794 25.8704C16.5583 26.2163 14.7792 26.1867 13.0714 25.7835C11.3636 25.3804 9.77001 24.614 8.40654 23.54C7.04307 22.466 5.94394 21.1113 5.18905 19.5746C4.43416 18.0378 4.04248 16.3575 4.04248 14.6559C4.04248 12.9542 4.43416 11.2739 5.18905 9.73713C5.94394 8.20037 7.04307 6.84574 8.40654 5.77172C9.77001 4.6977 11.3636 3.93128 13.0714 3.52817C14.7792 3.12506 16.5583 3.09538 18.2794 3.4413C20.6082 4.21221 22.6319 5.66465 24.0707 7.5977C25.6048 9.65097 26.4272 12.1222 26.4195 14.6563Z" fill="#F4AF11"/>
<g style="mix-blend-mode:multiply" opacity="0.3">
<g style="mix-blend-mode:multiply" opacity="0.3">
<path d="M27.6993 14.6565C27.6983 16.5649 27.2049 18.4429 26.264 20.1199C25.323 21.7969 23.9643 23.2199 22.3112 24.2596C20.658 25.2993 18.7628 25.9228 16.7976 26.0736C14.8323 26.2244 12.8593 25.8976 11.0576 25.1229L25.3513 7.80518C26.8796 9.78258 27.7036 12.1869 27.6993 14.6565Z" fill="#F4AF11"/>
</g>
</g>
<path d="M20.0178 19.9707C19.5919 20.6167 18.9606 21.1318 18.1236 21.5159C17.2867 21.8999 16.2791 22.0934 15.1008 22.0961V23.7441H14.1863V22.0514C12.6398 21.9276 11.3804 21.4741 10.4082 20.691C9.43603 19.9079 8.90055 18.8643 8.80178 17.5601H12.6749C12.7047 17.9678 12.8644 18.3565 13.1322 18.6725C13.4068 18.9816 13.776 19.198 14.1863 19.2901V16.0116C13.9448 15.943 13.7887 15.895 13.7179 15.8673C12.8487 15.6372 11.9986 15.3443 11.1746 14.9911C10.5066 14.6897 9.92281 14.2378 9.47228 13.6731C8.99617 13.0895 8.7584 12.3158 8.75897 11.352C8.7436 10.5616 8.99394 9.78773 9.47228 9.14698C9.97036 8.49807 10.6444 7.99537 11.4195 7.69464C12.2985 7.34698 13.2369 7.16197 14.1863 7.14919V5.46558H15.1008V7.17572C16.6616 7.27187 17.9033 7.70127 18.8258 8.46391C19.7484 9.22656 20.2662 10.2326 20.3792 11.4821H16.4401C16.4011 11.1126 16.2524 10.762 16.012 10.4725C15.7733 10.2044 15.4527 10.0168 15.0966 9.93697V13.1508L15.7645 13.3589C16.6236 13.6095 17.4648 13.9141 18.2829 14.2708C18.9382 14.5741 19.5105 15.0225 19.9536 15.5797C20.4223 16.1566 20.6563 16.9121 20.6558 17.8461C20.6615 18.5993 20.4397 19.3377 20.0178 19.9707ZM13.0474 12.1519C13.3094 12.4056 13.6891 12.6355 14.1863 12.8416V9.85739C13.7033 9.88558 13.3271 10.0163 13.0577 10.2495C12.7882 10.4827 12.6535 10.8054 12.6535 11.2177C12.65 11.3912 12.6831 11.5635 12.7508 11.7242C12.8186 11.8848 12.9195 12.0304 13.0474 12.1519ZM16.3142 18.971C16.4615 18.8388 16.5777 18.6774 16.6548 18.4979C16.7319 18.3184 16.7682 18.1249 16.7612 17.9306C16.7653 17.7505 16.7292 17.5716 16.6553 17.4062C16.5814 17.2408 16.4715 17.0928 16.3331 16.9723C16.0476 16.7187 15.636 16.4957 15.0983 16.3034V19.3937C15.6115 19.3799 16.0168 19.239 16.3142 18.971Z" fill="#CB9216"/>
<path d="M20.8169 19.2828C20.3916 19.9283 19.7602 20.4434 18.9227 20.828C18.0852 21.2126 17.0779 21.4061 15.9008 21.4083V23.0562H14.9854V21.3635C13.4389 21.2397 12.1798 20.7866 11.2082 20.004C10.2365 19.2215 9.70019 18.1776 9.59914 16.8722H13.4731C13.5019 17.2801 13.6618 17.6691 13.9304 17.9847C14.2046 18.2939 14.5736 18.5102 14.9837 18.6023V15.327C14.7422 15.258 14.5863 15.2099 14.5161 15.1828C13.6471 14.9525 12.797 14.6599 11.9729 14.3074C11.3046 14.0056 10.7206 13.5534 10.2696 12.9886C9.79467 12.405 9.55718 11.6313 9.55718 10.6675C9.54337 9.87894 9.79395 9.10731 10.2714 8.46825C10.7697 7.81959 11.4436 7.31696 12.2186 7.01592C13.0975 6.66826 14.036 6.48325 14.9854 6.47047V4.77856H15.9008V6.48787C17.4621 6.58514 18.7035 7.01454 19.6249 7.77607C20.5463 8.53761 21.0644 9.54369 21.1791 10.7943H17.2401C17.2006 10.4249 17.052 10.0743 16.8119 9.78464C16.573 9.51687 16.2525 9.32938 15.8965 9.24913V12.463L16.5567 12.6694C17.4173 12.9208 18.2598 13.227 19.0786 13.5862C19.734 13.889 20.3063 14.3372 20.7492 14.8943C21.2174 15.4713 21.4514 16.2267 21.4514 17.1607C21.4576 17.9128 21.2371 18.6502 20.8169 19.2828ZM13.8473 11.4641C14.1094 11.7178 14.4887 11.9477 14.9854 12.1538V9.16955C14.5036 9.19774 14.1276 9.32844 13.8576 9.56165C13.5876 9.79486 13.4526 10.1165 13.4526 10.5266C13.4487 10.7007 13.4817 10.8737 13.5496 11.0349C13.6175 11.1962 13.7188 11.3422 13.8473 11.4641ZM17.1142 18.2831C17.2618 18.1511 17.3782 17.9898 17.4557 17.8103C17.5331 17.6308 17.5697 17.4372 17.5629 17.2428C17.567 17.0626 17.5308 16.8837 17.4569 16.7184C17.3831 16.553 17.2731 16.405 17.1347 16.2845C16.8493 16.0308 16.4377 15.8078 15.8999 15.6155V18.7059C16.412 18.6921 16.8167 18.5511 17.1142 18.2831Z" fill="#F8DB42"/>
<g style="mix-blend-mode:screen" opacity="0.3">
<path d="M26.9566 5.4433L25.1164 7.51072L22.5518 5.23524L24.3946 3.16284C25.3388 3.82215 26.1989 4.58766 26.9566 5.4433Z" fill="white"/>
</g>
<g style="mix-blend-mode:screen" opacity="0.3">
<path d="M10.1517 24.6868L8.30467 26.7592C7.30955 26.1745 6.3897 25.4774 5.56445 24.6827L7.39868 22.7935L10.1517 24.6868Z" fill="white"/>
</g>
</svg>
