<svg width="23" height="26" viewBox="0 0 23 26" fill="none" xmlns="http://www.w3.org/2000/svg">
<path d="M4.3198 25.099C3.78182 25.099 3.3111 24.8973 2.90761 24.4938C2.50413 24.0903 2.30239 23.6196 2.30239 23.0816V3.91625H1.93253C1.64673 3.91625 1.40717 3.81902 1.21383 3.62457C1.0205 3.43009 0.923828 3.18912 0.923828 2.90166C0.923828 2.61418 1.0205 2.37517 1.21383 2.18464C1.40717 1.99411 1.64673 1.89884 1.93253 1.89884H7.24504C7.24504 1.60744 7.34171 1.36647 7.53505 1.17594C7.72838 0.985403 7.96795 0.890137 8.25375 0.890137H15.1129C15.3987 0.890137 15.6383 0.986804 15.8316 1.18014C16.025 1.37347 16.1216 1.61304 16.1216 1.89884H21.4342C21.72 1.89884 21.9595 1.99607 22.1529 2.19053C22.3462 2.385 22.4429 2.62597 22.4429 2.91343C22.4429 3.20091 22.3462 3.43992 22.1529 3.63045C21.9595 3.82098 21.72 3.91625 21.4342 3.91625H21.0643V23.0816C21.0643 23.6196 20.8626 24.0903 20.4591 24.4938C20.0556 24.8973 19.5849 25.099 19.0469 25.099H4.3198ZM4.3198 3.91625V23.0816H19.0469V3.91625H4.3198ZM7.88389 19.1813C7.88389 19.4671 7.98112 19.7067 8.17557 19.9C8.37005 20.0934 8.61102 20.19 8.89848 20.19C9.18596 20.19 9.42497 20.0934 9.6155 19.9C9.80603 19.7067 9.9013 19.4671 9.9013 19.1813V7.78295C9.9013 7.49715 9.80407 7.25758 9.60962 7.06425C9.41514 6.87091 9.17417 6.77425 8.88671 6.77425C8.59923 6.77425 8.36022 6.87091 8.16969 7.06425C7.97916 7.25758 7.88389 7.49715 7.88389 7.78295V19.1813ZM13.4654 19.1813C13.4654 19.4671 13.5626 19.7067 13.7571 19.9C13.9516 20.0934 14.1925 20.19 14.48 20.19C14.7675 20.19 15.0065 20.0934 15.197 19.9C15.3875 19.7067 15.4828 19.4671 15.4828 19.1813V7.78295C15.4828 7.49715 15.3856 7.25758 15.1911 7.06425C14.9966 6.87091 14.7557 6.77425 14.4682 6.77425C14.1807 6.77425 13.9417 6.87091 13.7512 7.06425C13.5607 7.25758 13.4654 7.49715 13.4654 7.78295V19.1813Z" fill="#656565"/>
<path d="M4.3198 25.099C3.78182 25.099 3.3111 24.8973 2.90761 24.4938C2.50413 24.0903 2.30239 23.6196 2.30239 23.0816V3.91625H1.93253C1.64673 3.91625 1.40717 3.81902 1.21383 3.62457C1.0205 3.43009 0.923828 3.18912 0.923828 2.90166C0.923828 2.61418 1.0205 2.37517 1.21383 2.18464C1.40717 1.99411 1.64673 1.89884 1.93253 1.89884H7.24504C7.24504 1.60744 7.34171 1.36647 7.53505 1.17594C7.72838 0.985403 7.96795 0.890137 8.25375 0.890137H15.1129C15.3987 0.890137 15.6383 0.986804 15.8316 1.18014C16.025 1.37347 16.1216 1.61304 16.1216 1.89884H21.4342C21.72 1.89884 21.9595 1.99607 22.1529 2.19053C22.3462 2.385 22.4429 2.62597 22.4429 2.91343C22.4429 3.20091 22.3462 3.43992 22.1529 3.63045C21.9595 3.82098 21.72 3.91625 21.4342 3.91625H21.0643V23.0816C21.0643 23.6196 20.8626 24.0903 20.4591 24.4938C20.0556 24.8973 19.5849 25.099 19.0469 25.099H4.3198ZM4.3198 3.91625V23.0816H19.0469V3.91625H4.3198ZM7.88389 19.1813C7.88389 19.4671 7.98112 19.7067 8.17557 19.9C8.37005 20.0934 8.61102 20.19 8.89848 20.19C9.18596 20.19 9.42497 20.0934 9.6155 19.9C9.80603 19.7067 9.9013 19.4671 9.9013 19.1813V7.78295C9.9013 7.49715 9.80407 7.25758 9.60962 7.06425C9.41514 6.87091 9.17417 6.77425 8.88671 6.77425C8.59923 6.77425 8.36022 6.87091 8.16969 7.06425C7.97916 7.25758 7.88389 7.49715 7.88389 7.78295V19.1813ZM13.4654 19.1813C13.4654 19.4671 13.5626 19.7067 13.7571 19.9C13.9516 20.0934 14.1925 20.19 14.48 20.19C14.7675 20.19 15.0065 20.0934 15.197 19.9C15.3875 19.7067 15.4828 19.4671 15.4828 19.1813V7.78295C15.4828 7.49715 15.3856 7.25758 15.1911 7.06425C14.9966 6.87091 14.7557 6.77425 14.4682 6.77425C14.1807 6.77425 13.9417 6.87091 13.7512 7.06425C13.5607 7.25758 13.4654 7.49715 13.4654 7.78295V19.1813Z" fill="black" fill-opacity="0.2"/>
</svg>
