<svg width="17" height="10" viewBox="0 0 17 10" fill="none" xmlns="http://www.w3.org/2000/svg">
<path d="M2.37022 0.395899L8.55741 6.58313L14.7446 0.395899C15.2327 -0.0922507 16.0242 -0.0922507 16.5123 0.395899C17.0005 0.884059 17.0005 1.67551 16.5123 2.16363L9.44131 9.23473C9.20681 9.46913 8.88891 9.60083 8.55741 9.60083C8.22591 9.60083 7.90791 9.46913 7.67351 9.23473L0.602447 2.16363C0.541427 2.10263 0.488038 2.03693 0.442268 1.96753C0.121918 1.48239 0.175307 0.823039 0.602447 0.395899C0.663467 0.334879 0.729228 0.28149 0.798538 0.23573C1.28373 -0.0846303 1.94308 -0.0312307 2.37022 0.395899Z" fill="#15284B"/>
</svg>
