<svg width="12" height="13" viewBox="0 0 12 13" fill="none" xmlns="http://www.w3.org/2000/svg">
<path d="M7.29545 8.08182C7.13182 7.61818 6.79545 7.24545 6.28636 6.96364C5.77727 6.68182 5.06364 6.54091 4.14545 6.54091C3.22727 6.54091 2.51364 6.68182 2.00455 6.96364C1.49545 7.24545 1.15455 7.61818 0.981818 8.08182H7.29545ZM0 8.9C0 8.46364 0.0795455 8.05227 0.238636 7.66591C0.397727 7.27955 0.647727 6.94318 0.988636 6.65682C1.32955 6.37045 1.76136 6.14318 2.28409 5.975C2.80682 5.80682 3.42955 5.72273 4.15227 5.72273C4.875 5.72273 5.49545 5.80682 6.01364 5.975C6.53182 6.14318 6.96136 6.37045 7.30227 6.65682C7.64318 6.94318 7.89318 7.27955 8.05227 7.66591C8.21136 8.05227 8.29091 8.46364 8.29091 8.9H0ZM0 10.6455V9.82727H8.29091V10.6455H0ZM9.10909 12.5V11.6818H10.2818L11.0591 3.77273H5.63182L5.53636 2.95455H8.33182V0.5H9.15V2.95455H12L11.0864 11.6818C11.0591 11.9182 10.9614 12.1136 10.7932 12.2682C10.625 12.4227 10.4136 12.5 10.1591 12.5H9.10909ZM0.409091 12.5C0.3 12.5 0.204545 12.4591 0.122727 12.3773C0.0409091 12.2955 0 12.2 0 12.0909V11.6818H8.29091V12.0909C8.29091 12.2 8.25 12.2955 8.16818 12.3773C8.08636 12.4591 7.99091 12.5 7.88182 12.5H0.409091Z" fill="#15284B"/>
</svg>
