<svg width="22" height="22" viewBox="0 0 22 22" fill="none" xmlns="http://www.w3.org/2000/svg">
<path d="M1.90247 19.8495H3.19306L16.1869 6.85562L14.8963 5.56504L1.90247 18.5589V19.8495ZM19.912 5.59437L16.1576 1.83993L17.3895 0.608011C17.7219 0.275587 18.1326 0.109375 18.6214 0.109375C19.1103 0.109375 19.5209 0.275587 19.8534 0.608011L21.1439 1.8986C21.4764 2.23102 21.6426 2.64166 21.6426 3.13052C21.6426 3.61938 21.4764 4.03002 21.1439 4.36244L19.912 5.59437ZM18.6801 6.82629L3.89701 21.6094H0.142578V17.8549L14.9257 3.07186L18.6801 6.82629ZM15.5416 6.21033L14.8963 5.56504L16.1869 6.85562L15.5416 6.21033Z" fill="#656565"/>
<path d="M1.90247 19.8495H3.19306L16.1869 6.85562L14.8963 5.56504L1.90247 18.5589V19.8495ZM19.912 5.59437L16.1576 1.83993L17.3895 0.608011C17.7219 0.275587 18.1326 0.109375 18.6214 0.109375C19.1103 0.109375 19.5209 0.275587 19.8534 0.608011L21.1439 1.8986C21.4764 2.23102 21.6426 2.64166 21.6426 3.13052C21.6426 3.61938 21.4764 4.03002 21.1439 4.36244L19.912 5.59437ZM18.6801 6.82629L3.89701 21.6094H0.142578V17.8549L14.9257 3.07186L18.6801 6.82629ZM15.5416 6.21033L14.8963 5.56504L16.1869 6.85562L15.5416 6.21033Z" fill="black" fill-opacity="0.2"/>
</svg>
