<svg width="15" height="17" viewBox="0 0 15 17" fill="none" xmlns="http://www.w3.org/2000/svg">
<path d="M2.62689 16.9581C2.2717 16.9581 1.96091 16.8249 1.69452 16.5585C1.42813 16.2921 1.29494 15.9813 1.29494 15.6261V2.97254H1.05074C0.86205 2.97254 0.70388 2.90835 0.576234 2.77996C0.448589 2.65156 0.384766 2.49247 0.384766 2.30268C0.384766 2.11288 0.448589 1.95508 0.576234 1.82928C0.70388 1.70349 0.86205 1.64059 1.05074 1.64059H4.55823C4.55823 1.44819 4.62205 1.2891 4.7497 1.1633C4.87734 1.03751 5.03551 0.974609 5.22421 0.974609H9.75286C9.94155 0.974609 10.0997 1.03843 10.2274 1.16608C10.355 1.29372 10.4188 1.45189 10.4188 1.64059H13.9263C14.115 1.64059 14.2732 1.70478 14.4008 1.83317C14.5285 1.96157 14.5923 2.12066 14.5923 2.31045C14.5923 2.50025 14.5285 2.65805 14.4008 2.78385C14.2732 2.90965 14.115 2.97254 13.9263 2.97254H13.6821V15.6261C13.6821 15.9813 13.5489 16.2921 13.2825 16.5585C13.0161 16.8249 12.7054 16.9581 12.3502 16.9581H2.62689ZM2.62689 2.97254V15.6261H12.3502V2.97254H2.62689ZM4.98001 13.051C4.98001 13.2397 5.04421 13.3979 5.17259 13.5255C5.30099 13.6532 5.46009 13.717 5.64988 13.717C5.83968 13.717 5.99748 13.6532 6.12328 13.5255C6.24907 13.3979 6.31197 13.2397 6.31197 13.051V5.52546C6.31197 5.33676 6.24778 5.17859 6.11939 5.05095C5.99099 4.9233 5.8319 4.85948 5.64211 4.85948C5.4523 4.85948 5.2945 4.9233 5.16871 5.05095C5.04291 5.17859 4.98001 5.33676 4.98001 5.52546V13.051ZM8.66509 13.051C8.66509 13.2397 8.72928 13.3979 8.85767 13.5255C8.98607 13.6532 9.14516 13.717 9.33495 13.717C9.52476 13.717 9.68256 13.6532 9.80835 13.5255C9.93415 13.3979 9.99705 13.2397 9.99705 13.051V5.52546C9.99705 5.33676 9.93285 5.17859 9.80447 5.05095C9.67607 4.9233 9.51697 4.85948 9.32718 4.85948C9.13738 4.85948 8.97958 4.9233 8.85379 5.05095C8.72799 5.17859 8.66509 5.33676 8.66509 5.52546V13.051Z" fill="#B7B7B7"/>
</svg>
