<svg width="17" height="14" viewBox="0 0 17 14" fill="none" xmlns="http://www.w3.org/2000/svg">
<path d="M0.828125 9.63561C0.633333 9.63561 0.470052 9.56934 0.338281 9.43681C0.20651 9.30426 0.140625 9.14002 0.140625 8.9441C0.140625 8.74816 0.20651 8.58526 0.338281 8.4554C0.470052 8.32554 0.633333 8.26061 0.828125 8.26061H15.9531C16.1479 8.26061 16.3112 8.32688 16.443 8.45941C16.5747 8.59196 16.6406 8.7562 16.6406 8.95212C16.6406 9.14806 16.5747 9.31096 16.443 9.44082C16.3112 9.57068 16.1479 9.63561 15.9531 9.63561H0.828125ZM0.828125 13.4398C0.633333 13.4398 0.470052 13.3735 0.338281 13.241C0.20651 13.1084 0.140625 12.9442 0.140625 12.7483C0.140625 12.5523 0.20651 12.3894 0.338281 12.2596C0.470052 12.1297 0.633333 12.0648 0.828125 12.0648H15.9531C16.1479 12.0648 16.3112 12.131 16.443 12.2636C16.5747 12.3961 16.6406 12.5604 16.6406 12.7563C16.6406 12.9522 16.5747 13.1151 16.443 13.245C16.3112 13.3748 16.1479 13.4398 15.9531 13.4398H0.828125ZM0.828125 5.80853C0.633333 5.80853 0.470052 5.74226 0.338281 5.60973C0.20651 5.47718 0.140625 5.31294 0.140625 5.11702C0.140625 4.92108 0.20651 4.75818 0.338281 4.62832C0.470052 4.49846 0.633333 4.43353 0.828125 4.43353H15.9531C16.1479 4.43353 16.3112 4.4998 16.443 4.63233C16.5747 4.76488 16.6406 4.92912 16.6406 5.12504C16.6406 5.32098 16.5747 5.48388 16.443 5.61374C16.3112 5.7436 16.1479 5.80853 15.9531 5.80853H0.828125ZM0.828125 1.98145C0.633333 1.98145 0.470052 1.91518 0.338281 1.78264C0.20651 1.65009 0.140625 1.48586 0.140625 1.28994C0.140625 1.094 0.20651 0.931098 0.338281 0.801237C0.470052 0.671376 0.633333 0.606445 0.828125 0.606445H15.9531C16.1479 0.606445 16.3112 0.672712 16.443 0.805247C16.5747 0.937797 16.6406 1.10203 16.6406 1.29796C16.6406 1.49389 16.5747 1.65679 16.443 1.78665C16.3112 1.91651 16.1479 1.98145 15.9531 1.98145H0.828125Z" fill="#B7B7B7"/>
</svg>
