<svg width="10" height="13" viewBox="0 0 10 13" fill="none" xmlns="http://www.w3.org/2000/svg">
<path d="M2.79688 12.5V6.98C2.27687 6.87 1.83437 6.6075 1.46938 6.1925C1.10437 5.7775 0.921875 5.28 0.921875 4.7V0.5H1.82187V4.7H2.79688V0.5H3.69687V4.7H4.67188V0.5H5.57188V4.7C5.57188 5.28 5.38937 5.7775 5.02437 6.1925C4.65937 6.6075 4.21687 6.87 3.69687 6.98V12.5H2.79688ZM9.02187 12.5V7.7H7.29688V3.125C7.29688 2.335 7.53687 1.7 8.01687 1.22C8.49687 0.74 9.13188 0.5 9.92188 0.5V12.5H9.02187Z" fill="#15284B"/>
</svg>
