<svg width="15" height="13" viewBox="0 0 15 13" fill="none" xmlns="http://www.w3.org/2000/svg">
<path d="M3.56563 12.5C3.24063 12.5 2.97188 12.3938 2.75938 12.1813C2.54688 11.9688 2.44063 11.7 2.44063 11.375C2.44063 11.15 2.49688 10.9344 2.60938 10.7281C2.72188 10.5219 2.88438 10.375 3.09688 10.2875L6.32188 9.0125V6.425C5.49688 7.4375 4.65938 8.2 3.80938 8.7125C2.95938 9.225 1.99688 9.48125 0.921875 9.48125V8.35625C1.77188 8.35625 2.54688 8.15938 3.24688 7.76563C3.94688 7.37188 4.57813 6.81875 5.14062 6.10625L6.22813 4.8875C6.35313 4.7375 6.5 4.6125 6.66875 4.5125C6.8375 4.4125 7.02188 4.3625 7.22188 4.3625H8.12188C8.32188 4.3625 8.50938 4.4125 8.68438 4.5125C8.85938 4.6125 9.00938 4.7375 9.13438 4.8875L10.2219 6.10625C10.8219 6.79375 11.4594 7.34063 12.1344 7.74688C12.8094 8.15313 13.5719 8.35625 14.4219 8.35625V9.48125C13.3594 9.48125 12.4 9.225 11.5438 8.7125C10.6875 8.2 9.84688 7.4375 9.02188 6.425V9.0125L12.2469 10.2875C12.4594 10.375 12.6219 10.5219 12.7344 10.7281C12.8469 10.9344 12.9031 11.15 12.9031 11.375C12.9031 11.7 12.7969 11.9688 12.5844 12.1813C12.3719 12.3938 12.1031 12.5 11.7781 12.5H6.09688V12.2938C6.09688 11.9688 6.19688 11.7063 6.39688 11.5063C6.59688 11.3063 6.85938 11.2063 7.18438 11.2063H9.67813C9.77813 11.2063 9.86563 11.1688 9.94063 11.0938C10.0156 11.0188 10.0531 10.9313 10.0531 10.8313C10.0531 10.7313 10.0156 10.6438 9.94063 10.5688C9.86563 10.4938 9.77813 10.4563 9.67813 10.4563H7.18438C6.63438 10.4563 6.19688 10.625 5.87188 10.9625C5.54688 11.3 5.38438 11.7438 5.38438 12.2938V12.5H3.56563ZM7.67188 3.2375C7.29688 3.2375 6.975 3.10313 6.70625 2.83438C6.4375 2.56563 6.30313 2.24375 6.30313 1.86875C6.30313 1.49375 6.4375 1.17188 6.70625 0.903125C6.975 0.634375 7.29688 0.5 7.67188 0.5C8.04688 0.5 8.36875 0.634375 8.6375 0.903125C8.90625 1.17188 9.04063 1.49375 9.04063 1.86875C9.04063 2.24375 8.90625 2.56563 8.6375 2.83438C8.36875 3.10313 8.04688 3.2375 7.67188 3.2375Z" fill="black"/>
</svg>
